<svg id="Camada_1" data-name="Camada 1" xmlns="http://www.w3.org/2000/svg" xmlns:xlink="http://www.w3.org/1999/xlink" viewBox="0 0 383.61 357.52"><defs><style>.cls-1,.cls-19{fill:#050404;}.cls-1{stroke:#121211;}.cls-1,.cls-18{stroke-miterlimit:10;}.cls-2{fill:url(#Gradiente_sem_nome_23);}.cls-3{fill:url(#Gradiente_sem_nome_23-2);}.cls-4{fill:url(#Gradiente_sem_nome_23-3);}.cls-5{fill:url(#Gradiente_sem_nome_23-4);}.cls-6{fill:url(#Gradiente_sem_nome_23-5);}.cls-7{fill:url(#Gradiente_sem_nome_23-6);}.cls-8{fill:url(#Gradiente_sem_nome_22);}.cls-9{fill:url(#Gradiente_sem_nome_22-2);}.cls-10{fill:url(#Gradiente_sem_nome_22-3);}.cls-11{fill:url(#Gradiente_sem_nome_22-4);}.cls-12{fill:url(#Gradiente_sem_nome_22-5);}.cls-13{fill:url(#Gradiente_sem_nome_22-6);}.cls-14{fill:url(#Gradiente_sem_nome_22-7);}.cls-15{fill:url(#Gradiente_sem_nome_22-8);}.cls-16{fill:url(#Gradiente_sem_nome_22-9);}.cls-17{fill:url(#Gradiente_sem_nome_22-10);}.cls-18{fill:#fafafa;stroke:#0b0a0a;}.cls-20{fill:#fff;}.cls-21{fill:#f5f6f7;}</style><linearGradient id="Gradiente_sem_nome_23" x1="19.92" y1="273.81" x2="31.7" y2="273.81" gradientUnits="userSpaceOnUse"><stop offset="0" stop-color="#fff"/><stop offset="0.67" stop-color="#b0b0b0"/></linearGradient><linearGradient id="Gradiente_sem_nome_23-2" x1="41.93" y1="273.81" x2="52.97" y2="273.81" xlink:href="#Gradiente_sem_nome_23"/><linearGradient id="Gradiente_sem_nome_23-3" x1="61.06" y1="273.81" x2="75.67" y2="273.81" xlink:href="#Gradiente_sem_nome_23"/><linearGradient id="Gradiente_sem_nome_23-4" x1="85.1" y1="273.89" x2="97.98" y2="273.89" xlink:href="#Gradiente_sem_nome_23"/><linearGradient id="Gradiente_sem_nome_23-5" x1="106.91" y1="273.81" x2="119.96" y2="273.81" xlink:href="#Gradiente_sem_nome_23"/><linearGradient id="Gradiente_sem_nome_23-6" x1="126.54" y1="273.81" x2="140.75" y2="273.81" xlink:href="#Gradiente_sem_nome_23"/><linearGradient id="Gradiente_sem_nome_22" x1="12.25" y1="230.8" x2="51.9" y2="230.8" xlink:href="#Gradiente_sem_nome_23"/><linearGradient id="Gradiente_sem_nome_22-2" x1="54.52" y1="237.32" x2="75.38" y2="237.32" xlink:href="#Gradiente_sem_nome_23"/><linearGradient id="Gradiente_sem_nome_22-3" x1="78.86" y1="237.32" x2="99.72" y2="237.32" xlink:href="#Gradiente_sem_nome_23"/><linearGradient id="Gradiente_sem_nome_22-4" x1="104.37" y1="237.5" x2="127.08" y2="237.5" xlink:href="#Gradiente_sem_nome_23"/><linearGradient id="Gradiente_sem_nome_22-5" x1="130.83" y1="237.42" x2="148.32" y2="237.42" xlink:href="#Gradiente_sem_nome_23"/><linearGradient id="Gradiente_sem_nome_22-6" x1="153.2" y1="237.46" x2="178.29" y2="237.46" xlink:href="#Gradiente_sem_nome_23"/><linearGradient id="Gradiente_sem_nome_22-7" x1="196.91" y1="231.28" x2="238.77" y2="231.28" xlink:href="#Gradiente_sem_nome_23"/><linearGradient id="Gradiente_sem_nome_22-8" x1="243.19" y1="237.5" x2="265.9" y2="237.5" xlink:href="#Gradiente_sem_nome_23"/><linearGradient id="Gradiente_sem_nome_22-9" x1="268.37" y1="230.58" x2="280.95" y2="230.58" xlink:href="#Gradiente_sem_nome_23"/><linearGradient id="Gradiente_sem_nome_22-10" x1="283.48" y1="237.32" x2="304.34" y2="237.32" xlink:href="#Gradiente_sem_nome_23"/></defs><title>logo</title><rect class="cls-1" x="0.5" y="0.5" width="382.61" height="356.52"/><path class="cls-2" d="M19.92,266.65h6c3.33,0,5.11,1.45,5.11,3.52a3.22,3.22,0,0,1-2.68,3.13c1.24.29,3.3,1.29,3.3,3.54,0,2.87-2.6,4.14-5.63,4.14H19.92Zm5.61,6.16c3,0,4.14-.92,4.14-2.58,0-1.41-1.19-2.56-3.62-2.56H21.23v5.14ZM21.23,280h4.89c2.28,0,4.19-.95,4.19-3.06,0-1.82-1.41-3.07-4.91-3.07H21.23Z" transform="translate(-0.5 -0.5)"/><path class="cls-3" d="M52.13,273.94H43.27v6H53l-.2,1H41.93V266.65H52.57v1h-9.3v5.24h8.86Z" transform="translate(-0.5 -0.5)"/><path class="cls-4" d="M64.63,276l-2.21,5H61.06l6.37-14.33H69L75.67,281H74.21L72,276Zm6.87-1c-1.93-4.26-2.92-6.31-3.27-7.27h0c-.42,1.09-1.53,3.63-3.1,7.27Z" transform="translate(-0.5 -0.5)"/><path class="cls-5" d="M86.49,266.65v8.68c0,3.81,2.61,4.79,5.06,4.79,2.9,0,5.06-1,5.06-4.79v-8.68H98v8.62c0,4.48-2.88,5.87-6.48,5.87-3.42,0-6.4-1.53-6.4-5.69v-8.8Z" transform="translate(-0.5 -0.5)"/><path class="cls-6" d="M112.74,267.67h-5.83v-1h13v1h-5.85V281h-1.37Z" transform="translate(-0.5 -0.5)"/><path class="cls-7" d="M132.84,281v-5.39a.58.58,0,0,0-.1-.32l-6.2-8.62h1.56c1.74,2.43,4.76,6.67,5.51,7.74.74-1.07,3.79-5.27,5.66-7.74h1.48l-6.47,8.7a.52.52,0,0,0-.08.31V281Z" transform="translate(-0.5 -0.5)"/><path class="cls-8" d="M31.2,212.16h1.35a231.49,231.49,0,0,1,9,21.72q3.68,9.85,5,12.09a5.33,5.33,0,0,0,4.39,2.48c.64.05,1,.26,1,.61s-.16.39-.49.39l-.41,0q-2.67-.22-6.79-.22c-4.22,0-6.94.06-8.14.19-.6,0-.9-.16-.9-.5s.23-.39.67-.44a8.42,8.42,0,0,0,3.41-.81,2,2,0,0,0,1-1.83,25.82,25.82,0,0,0-1.77-6l-1.71-4.77q-1.52,0-13.51.16-3,7.69-3,9.7a2.7,2.7,0,0,0,1.5,2.52,7,7,0,0,0,2.95.91c.71,0,1.07.26,1.07.62,0,.14-.11.28-.35.4-3.09-.13-5-.19-5.6-.19-3.25,0-5.44,0-6.57.11-.62,0-.93-.17-.93-.5s.27-.48.82-.56c2.22-.27,3.93-1.72,5.11-4.32s3-7.3,5.52-14.07Q27.14,220.62,31.2,212.16Zm-1.15,6.05a136.08,136.08,0,0,0-6.32,15.31c2-.09,3.43-.14,4.3-.14l8.17.14q-1.08-2.88-3-7.65Q30.8,220.17,30.05,218.21Z" transform="translate(-0.5 -0.5)"/><path class="cls-9" d="M63.18,231.67a15.79,15.79,0,0,1,3.9-4.67,7.23,7.23,0,0,1,4.37-1.55,3.87,3.87,0,0,1,2.76,1.09A3.35,3.35,0,0,1,75.38,229c0,1.76-.79,2.63-2.36,2.63q-1.09,0-1.86-1.47a2.78,2.78,0,0,0-2.46-1.86,4.37,4.37,0,0,0-3,1.56,8,8,0,0,0-2.06,3.4,35.49,35.49,0,0,0-.52,7.74q0,5.39.46,6.18c.31.53,1.11.87,2.38,1,.35,0,.53.16.53.39s-.46.58-1.37.58H55.86c-.66,0-1-.16-1-.47s.43-.47,1.31-.5c1.22-.08,2-.44,2.26-1.09s.44-3,.44-7.16q0-9.09-.4-10.92t-2.91-1.95c-.7,0-1-.21-1-.52a.4.4,0,0,1,.22-.38A14.62,14.62,0,0,1,57.4,226l5.34-.28C62.88,226.67,63,228.67,63.18,231.67Z" transform="translate(-0.5 -0.5)"/><path class="cls-10" d="M87.52,231.67A15.66,15.66,0,0,1,91.43,227a7.2,7.2,0,0,1,4.37-1.55,3.9,3.9,0,0,1,2.76,1.09A3.37,3.37,0,0,1,99.72,229c0,1.76-.79,2.63-2.35,2.63q-1.11,0-1.86-1.47A2.8,2.8,0,0,0,93,228.33a4.33,4.33,0,0,0-3,1.56,7.89,7.89,0,0,0-2.07,3.4,35.49,35.49,0,0,0-.52,7.74q0,5.39.46,6.18c.31.53,1.11.87,2.39,1,.35,0,.52.16.52.39s-.46.58-1.37.58H80.2c-.66,0-1-.16-1-.47s.44-.47,1.31-.5c1.22-.08,2-.44,2.26-1.09s.44-3,.44-7.16q0-9.09-.39-10.92c-.26-1.22-1.24-1.87-2.92-1.95-.7,0-1-.21-1-.52a.4.4,0,0,1,.22-.38,14.76,14.76,0,0,1,2.66-.26l5.34-.28C87.22,226.67,87.36,228.67,87.52,231.67Z" transform="translate(-0.5 -0.5)"/><path class="cls-11" d="M118.51,245.65a9.34,9.34,0,0,1-3.4,2.95,9.8,9.8,0,0,1-4.47,1,6.62,6.62,0,0,1-4.6-1.5,5,5,0,0,1-1.67-3.94,6.28,6.28,0,0,1,1-3.42,6.35,6.35,0,0,1,2.29-2.27,29.8,29.8,0,0,1,4.55-1.75c3.1-1,5-1.8,5.58-2.44a3.51,3.51,0,0,0,.93-2.53,5.64,5.64,0,0,0-1.22-3.86A4.39,4.39,0,0,0,114,226.5a4.21,4.21,0,0,0-2.76.78,5.78,5.78,0,0,0-1.42,3.15c-.35,1.71-1.12,2.57-2.3,2.57a2.39,2.39,0,0,1-1.41-.62,2.15,2.15,0,0,1-.77-1.8c0-1.39.81-2.59,2.41-3.62a12.23,12.23,0,0,1,6.63-1.54,13.15,13.15,0,0,1,5.33.9,4.73,4.73,0,0,1,2.5,2.07,13.38,13.38,0,0,1,.5,4.5l-.17,7.34a23.49,23.49,0,0,0,.54,6c.36,1.19,1,1.79,2,1.79a6.35,6.35,0,0,0,.81-.08l.49-.06c.45,0,.67.16.67.46q0,1.06-5.72,1.07a2.7,2.7,0,0,1-2.22-.74A5.74,5.74,0,0,1,118.51,245.65Zm0-10.82a12.94,12.94,0,0,1-4,2.63,16.41,16.41,0,0,0-4.38,2.86,4.62,4.62,0,0,0-1.34,3.33,4.31,4.31,0,0,0,1.09,3,3.51,3.51,0,0,0,2.72,1.22,5.59,5.59,0,0,0,3.16-1,5.94,5.94,0,0,0,2.19-2.51,11,11,0,0,0,.72-4.52C118.72,238.32,118.65,236.66,118.51,234.83Z" transform="translate(-0.5 -0.5)"/><path class="cls-12" d="M148.32,241.86a7.29,7.29,0,0,1-2.5,5.53,8.4,8.4,0,0,1-5.91,2.31,12.31,12.31,0,0,1-4.84-1.25,8.25,8.25,0,0,0-1.83-.67,1.06,1.06,0,0,0-.87.59c-.32.51-.61.77-.89.77s-.39-.26-.44-.79-.1-1.72-.12-3.59c0-1.61,0-2.65-.09-3.11,0-.68.19-1,.57-1,.22,0,.38.18.5.53a15.54,15.54,0,0,0,3.17,5.37,6.32,6.32,0,0,0,4.79,2.21,5.5,5.5,0,0,0,3.44-1.16,3.71,3.71,0,0,0,1.5-3.12q0-3-5.53-5.41a52.36,52.36,0,0,1-5.08-2.37,5.52,5.52,0,0,1-2.72-4.8,6.07,6.07,0,0,1,2.27-4.8,8.24,8.24,0,0,1,5.5-1.93,12,12,0,0,1,5.24,1.42,1.9,1.9,0,0,0,.81.22c.2,0,.41-.15.64-.46s.41-.43.54-.43a.46.46,0,0,1,.4.21,11.37,11.37,0,0,1,.31,2.45q.18,2.25.18,3.69c0,.6-.17.89-.5.89s-.52-.26-.69-.8a19.78,19.78,0,0,0-1.4-2.84,5.67,5.67,0,0,0-2.54-2.68,6.89,6.89,0,0,0-2.71-.58,5.73,5.73,0,0,0-3.43,1,3,3,0,0,0-.79,4.27,5.89,5.89,0,0,0,1,1.16,51.18,51.18,0,0,0,5.54,2.57,23.93,23.93,0,0,1,4.12,2.09,5.93,5.93,0,0,1,1.66,2A5.5,5.5,0,0,1,148.32,241.86Z" transform="translate(-0.5 -0.5)"/><path class="cls-13" d="M153.2,237.61a11.84,11.84,0,0,1,3.69-8.59,12.3,12.3,0,0,1,9.06-3.71,12.46,12.46,0,0,1,8.7,3.33,10.76,10.76,0,0,1,3.64,8.31,12.08,12.08,0,0,1-3.83,8.85,12.31,12.31,0,0,1-9,3.81,12,12,0,0,1-8.68-3.5A11.38,11.38,0,0,1,153.2,237.61Zm4.7-.16a13,13,0,0,0,2.31,7.92,6.65,6.65,0,0,0,11.19.2,12.3,12.3,0,0,0,2.36-7.87,13.74,13.74,0,0,0-2.28-7.8,6.86,6.86,0,0,0-5.91-3.42,6.45,6.45,0,0,0-5.52,3.11A13.56,13.56,0,0,0,157.9,237.45Z" transform="translate(-0.5 -0.5)"/><path class="cls-14" d="M227.21,230.17l.26-7.72c0-3.38-.35-5.61-1.06-6.67a4,4,0,0,0-3.55-1.6c-1,0-1.46-.19-1.46-.58s.29-.52.87-.52l8.47.27,7.19-.14c.56,0,.84.17.84.5s-.18.45-.55.45a7.8,7.8,0,0,0-3.43.61,3.06,3.06,0,0,0-1.61,2.08,57.91,57.91,0,0,0-.64,8.39q-.24,6.93-.24,10.06l-.09,6.82c0,2.13.21,3.51.64,4.15a4.15,4.15,0,0,0,1.9,1.5,8.84,8.84,0,0,0,2.6.68c.62.07.93.25.93.53s-.26.44-.79.44l-9-.22-5.85.19c-.68,0-1-.16-1-.5s.25-.42.73-.44a7.64,7.64,0,0,0,3-.58,3.14,3.14,0,0,0,1.14-1.7,15.08,15.08,0,0,0,.5-4.21l.14-10.07c-1.66-.12-3.35-.17-5.07-.17q-11.23,0-14.24.39-.24,5.31-.24,8.75a34.86,34.86,0,0,0,.18,4.74,2.84,2.84,0,0,0,1.09,1.64,5.38,5.38,0,0,0,2.51,1.07c.66.13,1,.33,1,.61s-.22.5-.64.5a3.9,3.9,0,0,1-.58-.06q-1.58-.17-6.51-.16a50.17,50.17,0,0,0-6.59.24,4.73,4.73,0,0,1-.53,0c-.44,0-.67-.15-.67-.43s.3-.53.9-.6a5.35,5.35,0,0,0,3.2-1.19c.64-.63,1.08-3,1.32-7.07s.36-9,.36-14.87q0-7.12-.69-9c-.47-1.24-1.6-1.93-3.4-2-.41,0-.61-.19-.61-.46s.42-.57,1.25-.57l11.7-.17a9.31,9.31,0,0,1,1.5.07c.17.05.25.19.25.45s-.25.46-.76.51c-1.91.18-3.08.52-3.5,1s-.62,3.48-.62,9q0,.87.09,6c2,.14,4.29.22,7,.22Q220,230.39,227.21,230.17Z" transform="translate(-0.5 -0.5)"/><path class="cls-15" d="M257.34,245.65a9.42,9.42,0,0,1-3.4,2.95,9.87,9.87,0,0,1-4.48,1,6.64,6.64,0,0,1-4.6-1.5,5.06,5.06,0,0,1-1.67-3.94,6.77,6.77,0,0,1,3.3-5.69,29.57,29.57,0,0,1,4.54-1.75c3.1-1,5-1.8,5.58-2.44a3.51,3.51,0,0,0,.93-2.53,5.64,5.64,0,0,0-1.22-3.86,4.37,4.37,0,0,0-3.46-1.38,4.21,4.21,0,0,0-2.76.78,5.78,5.78,0,0,0-1.42,3.15c-.35,1.71-1.12,2.57-2.3,2.57a2.34,2.34,0,0,1-1.4-.62,2.12,2.12,0,0,1-.77-1.8c0-1.39.8-2.59,2.41-3.62a12.17,12.17,0,0,1,6.62-1.54,13.12,13.12,0,0,1,5.33.9,4.69,4.69,0,0,1,2.5,2.07,13.05,13.05,0,0,1,.51,4.5l-.18,7.34a23.49,23.49,0,0,0,.54,6c.36,1.19,1,1.79,2,1.79a6.35,6.35,0,0,0,.81-.08l.5-.06c.44,0,.66.16.66.46,0,.71-1.9,1.07-5.72,1.07a2.7,2.7,0,0,1-2.22-.74A5.67,5.67,0,0,1,257.34,245.65Zm0-10.82a13.08,13.08,0,0,1-3.95,2.63,16.33,16.33,0,0,0-4.39,2.86,4.62,4.62,0,0,0-1.34,3.33,4.31,4.31,0,0,0,1.09,3,3.51,3.51,0,0,0,2.72,1.22,5.57,5.57,0,0,0,3.16-1,6,6,0,0,0,2.2-2.51,11.17,11.17,0,0,0,.71-4.52C257.54,238.32,257.47,236.66,257.34,234.83Z" transform="translate(-0.5 -0.5)"/><path class="cls-16" d="M276.62,225.37l0,6.24.06,5.82v4.39l0,3.33c0,1.33.23,2.18.69,2.54a3.41,3.41,0,0,0,2,.59c1.07.06,1.6.27,1.6.64s-.2.44-.61.44l-.52,0a39.83,39.83,0,0,0-5-.34,38.49,38.49,0,0,0-5.14.23,3.79,3.79,0,0,1-.58.05c-.46,0-.7-.17-.7-.5s.54-.56,1.62-.69a3.58,3.58,0,0,0,2.06-.68q.45-.49.45-2.76l.2-11.49q0-4.6-.72-5.45a3.83,3.83,0,0,0-2.82-.9c-.47,0-.7-.15-.7-.45a.43.43,0,0,1,.23-.38,19.88,19.88,0,0,1,3.46-.36C274.3,225.47,275.79,225.38,276.62,225.37ZM273.4,211.8a2.86,2.86,0,0,1,2,.78,2.22,2.22,0,0,1,.88,1.69,2.65,2.65,0,0,1-.72,1.86,2.53,2.53,0,0,1-2,.77,3.08,3.08,0,0,1-2-.68,2.2,2.2,0,0,1-.87-1.84,2.46,2.46,0,0,1,.74-1.86A2.65,2.65,0,0,1,273.4,211.8Z" transform="translate(-0.5 -0.5)"/><path class="cls-17" d="M292.14,231.67A15.79,15.79,0,0,1,296,227a7.23,7.23,0,0,1,4.37-1.55,3.87,3.87,0,0,1,2.76,1.09,3.35,3.35,0,0,1,1.17,2.49c0,1.76-.79,2.63-2.36,2.63q-1.1,0-1.86-1.47a2.79,2.79,0,0,0-2.47-1.86,4.37,4.37,0,0,0-3,1.56,8,8,0,0,0-2.06,3.4,35.49,35.49,0,0,0-.52,7.74q0,5.39.46,6.18c.31.53,1.11.87,2.38,1,.35,0,.53.16.53.39s-.46.58-1.37.58h-9.27c-.65,0-1-.16-1-.47s.43-.47,1.3-.5c1.22-.08,2-.44,2.27-1.09s.44-3,.44-7.16c0-6.06-.14-9.7-.4-10.92s-1.23-1.87-2.92-1.95c-.69,0-1-.21-1-.52a.4.4,0,0,1,.22-.38,14.57,14.57,0,0,1,2.65-.26l5.35-.28Q291.9,227.17,292.14,231.67Z" transform="translate(-0.5 -0.5)"/><polygon class="cls-18" points="11.58 195 82.05 12.71 87.03 12.71 159.03 195 126.86 195 110.39 151.34 36.47 151.34 19.62 195 11.58 195"/><polygon class="cls-19" points="36.81 147.71 73.19 53.6 109.17 147.71 36.81 147.71"/><path class="cls-20" d="M73.69,55.49,109,147.71H38L73.69,55.49m0-2.78-37.1,96H110.4l-36.71-96Z" transform="translate(-0.5 -0.5)"/><path class="cls-21" d="M316.13,269.36v39.82c0,1.15-.07,2.81-.2,4.81a35.19,35.19,0,0,1-.55,5.66c-.83,3.33-3,5.45-4.64,7.09a16.22,16.22,0,0,1-7.34,4.77,13.4,13.4,0,0,1-2.58.43h-.94c-2.78,0-5.52-.05-8.24-.14v6.55h78.13v-6.73l-6.54.18s-17.57.38-18.69-17l.19-45.43Z" transform="translate(-0.5 -0.5)"/><path class="cls-21" d="M345.07,194.5V154.24c0-1.16.08-2.84.2-4.86a36.81,36.81,0,0,1,.56-5.73c.84-3.37,3-5.51,4.7-7.17a16.46,16.46,0,0,1,7.42-4.82,13.08,13.08,0,0,1,2.62-.43h.95c2.81,0,5.59.05,8.34.13v-6.61H290.77v6.8l6.63-.19s17.78-.37,18.92,17.21l-.19,45.93Z" transform="translate(-0.5 -0.5)"/><path class="cls-21" d="M193.13,269.36v39.47c0,1.14-.07,2.79-.2,4.77a34.34,34.34,0,0,1-.55,5.61c-.83,3.3-3,5.41-4.64,7A16.19,16.19,0,0,1,180.4,331a13.25,13.25,0,0,1-2.58.42h-.94c-2.78,0-5.52-.05-8.24-.13v6.49h78.13v-6.67l-6.54.18s-17.57.37-18.69-16.87l.19-45Z" transform="translate(-0.5 -0.5)"/><path class="cls-21" d="M193.13,194.5V154.24c0-1.16-.07-2.84-.2-4.86a36,36,0,0,0-.55-5.73c-.83-3.37-3-5.51-4.64-7.17a16.26,16.26,0,0,0-7.34-4.82,12.66,12.66,0,0,0-2.58-.43h-.94c-2.78,0-5.52.05-8.24.13v-6.61h78.13v6.8l-6.54-.19s-17.57-.37-18.69,17.21l.19,45.93Z" transform="translate(-0.5 -0.5)"/></svg>