<svg id="Camada_1" data-name="Camada 1" xmlns="http://www.w3.org/2000/svg" viewBox="0 0 292.18 38.16"><defs><style>.cls-1{fill:#fff;stroke:#000;stroke-miterlimit:10;stroke-width:0.25px;}</style></defs><title>arraso</title><path class="cls-1" d="M21.87,2.89h1.35a232,232,0,0,1,9,21.72q3.68,9.86,5,12.09a5.31,5.31,0,0,0,4.39,2.48c.64,0,1,.26,1,.61s-.16.39-.49.39h-.41c-1.78-.14-4-.22-6.79-.22-4.22,0-6.94.06-8.14.19-.6,0-.9-.16-.9-.5s.23-.39.67-.44A8.25,8.25,0,0,0,30,38.4a2,2,0,0,0,1-1.83,25.69,25.69,0,0,0-1.77-6L27.48,25.8Q26,25.8,14,26q-3,7.7-3,9.7a2.69,2.69,0,0,0,1.5,2.52,7,7,0,0,0,2.95.91c.71,0,1.07.26,1.07.62,0,.14-.11.28-.35.4-3.09-.13-5-.19-5.6-.19-3.25,0-5.44,0-6.57.11-.62,0-.93-.17-.93-.5s.27-.48.82-.56C6.08,38.7,7.79,37.25,9,34.65s3-7.3,5.52-14.07A186.27,186.27,0,0,1,21.87,2.89Zm-1.15,6A135.06,135.06,0,0,0,14.4,24.25c2-.09,3.43-.14,4.3-.14l8.17.14q-1.08-2.88-3-7.65Q21.47,10.9,20.72,8.94Z" transform="translate(-2.92 -2.4)"/><path class="cls-1" d="M53.85,22.4a16,16,0,0,1,3.9-4.67,7.29,7.29,0,0,1,4.37-1.55,3.93,3.93,0,0,1,2.76,1.09,3.36,3.36,0,0,1,1.17,2.46c0,1.76-.79,2.63-2.36,2.63q-1.09,0-1.86-1.47A2.79,2.79,0,0,0,59.37,19a4.39,4.39,0,0,0-3,1.56A8.12,8.12,0,0,0,54.31,24a35.25,35.25,0,0,0-.52,7.74q0,5.4.46,6.18c.31.53,1.11.87,2.38,1,.35,0,.53.16.53.39s-.46.58-1.37.58H46.53c-.66,0-1-.16-1-.47s.43-.47,1.31-.5c1.22-.08,2-.44,2.26-1.09s.44-3,.44-7.16q0-9.09-.4-10.92t-2.91-1.95c-.7,0-1-.21-1-.52a.41.41,0,0,1,.22-.38,15.31,15.31,0,0,1,2.62-.16l5.34-.28C53.55,17.4,53.67,19.4,53.85,22.4Z" transform="translate(-2.92 -2.4)"/><path class="cls-1" d="M78.19,22.4a15.83,15.83,0,0,1,3.91-4.67,7.23,7.23,0,0,1,4.37-1.55,3.93,3.93,0,0,1,2.76,1.09,3.35,3.35,0,0,1,1.16,2.46c0,1.76-.79,2.63-2.35,2.63q-1.11,0-1.86-1.47a2.8,2.8,0,0,0-2.51-1.83,4.39,4.39,0,0,0-3,1.56A7.92,7.92,0,0,0,78.6,24a35.25,35.25,0,0,0-.52,7.74q0,5.4.46,6.18c.31.53,1.11.87,2.39,1,.35,0,.52.16.52.39s-.46.58-1.37.58H70.87c-.66,0-1-.16-1-.47s.44-.47,1.31-.5c1.22-.08,2-.44,2.26-1.09s.44-3,.44-7.16q0-9.09-.39-10.92c-.26-1.22-1.24-1.87-2.92-1.95-.7,0-1-.21-1-.52a.41.41,0,0,1,.22-.38,15.87,15.87,0,0,1,2.66-.26l5.34-.28C77.89,17.4,78,19.4,78.19,22.4Z" transform="translate(-2.92 -2.4)"/><path class="cls-1" d="M109.18,36.38a9.3,9.3,0,0,1-3.4,2.95,9.62,9.62,0,0,1-4.47,1,6.57,6.57,0,0,1-4.6-1.5A5,5,0,0,1,95,34.89a6.29,6.29,0,0,1,1-3.42,6.39,6.39,0,0,1,2.29-2.27,31,31,0,0,1,4.55-1.75c3.1-1,5-1.8,5.58-2.44a3.51,3.51,0,0,0,.93-2.53,5.64,5.64,0,0,0-1.22-3.86,4.43,4.43,0,0,0-3.5-1.39,4.25,4.25,0,0,0-2.76.78,5.8,5.8,0,0,0-1.42,3.15c-.35,1.71-1.12,2.57-2.3,2.57a2.33,2.33,0,0,1-1.41-.62,2.14,2.14,0,0,1-.77-1.8c0-1.39.81-2.59,2.41-3.62a12.28,12.28,0,0,1,6.63-1.54,13.27,13.27,0,0,1,5.33.9,4.77,4.77,0,0,1,2.5,2.07,13.43,13.43,0,0,1,.5,4.5L113.21,31a23.22,23.22,0,0,0,.54,6c.36,1.19,1,1.79,2,1.79a5.56,5.56,0,0,0,.81-.08l.49-.06c.45,0,.67.16.67.46q0,1.07-5.72,1.07a2.66,2.66,0,0,1-2.22-.74A5.72,5.72,0,0,1,109.18,36.38Zm0-10.82a12.86,12.86,0,0,1-4,2.63,16.71,16.71,0,0,0-4.38,2.86,4.63,4.63,0,0,0-1.34,3.33,4.33,4.33,0,0,0,1.09,3,3.51,3.51,0,0,0,2.72,1.22,5.51,5.51,0,0,0,3.16-1,6,6,0,0,0,2.19-2.51,11.07,11.07,0,0,0,.72-4.52,46.46,46.46,0,0,0-.16-5Z" transform="translate(-2.92 -2.4)"/><path class="cls-1" d="M139,32.59a7.28,7.28,0,0,1-2.5,5.53,8.33,8.33,0,0,1-5.91,2.31,12.18,12.18,0,0,1-4.84-1.25,8.54,8.54,0,0,0-1.83-.67,1.09,1.09,0,0,0-.87.59c-.32.51-.61.77-.89.77s-.39-.26-.44-.79-.1-1.72-.12-3.59a24.21,24.21,0,0,0-.09-3.11c0-.68.19-1,.57-1,.22,0,.38.18.5.53a15.37,15.37,0,0,0,3.17,5.37,6.31,6.31,0,0,0,4.79,2.21A5.42,5.42,0,0,0,134,38.33a3.69,3.69,0,0,0,1.5-3.12q0-3-5.53-5.41a50.88,50.88,0,0,1-5.08-2.37,5.51,5.51,0,0,1-2.72-4.8,6.09,6.09,0,0,1,2.27-4.8,8.29,8.29,0,0,1,5.5-1.93,12.17,12.17,0,0,1,5.24,1.42,1.79,1.79,0,0,0,.81.22c.2,0,.41-.15.64-.46s.41-.43.54-.43a.49.49,0,0,1,.4.21,11.34,11.34,0,0,1,.31,2.45Q138,21.56,138,23c0,.6-.17.89-.5.89s-.52-.26-.69-.8a20.22,20.22,0,0,0-1.4-2.84,5.69,5.69,0,0,0-2.54-2.68,7,7,0,0,0-2.71-.58,5.74,5.74,0,0,0-3.43,1,3,3,0,0,0-.87,4.16,1,1,0,0,0,.08.11,5.84,5.84,0,0,0,1,1.16A48.81,48.81,0,0,0,132.51,26a24.9,24.9,0,0,1,4.12,2.09,6.05,6.05,0,0,1,1.66,2A5.53,5.53,0,0,1,139,32.59Z" transform="translate(-2.92 -2.4)"/><path class="cls-1" d="M143.87,28.34a11.85,11.85,0,0,1,3.69-8.59A12.34,12.34,0,0,1,156.62,16a12.51,12.51,0,0,1,8.7,3.33A10.76,10.76,0,0,1,169,27.68a12.06,12.06,0,0,1-3.83,8.85,12.29,12.29,0,0,1-9,3.81,12,12,0,0,1-8.68-3.5A11.36,11.36,0,0,1,143.87,28.34Zm4.7-.16a13,13,0,0,0,2.31,7.92,6.65,6.65,0,0,0,11.19.2,12.25,12.25,0,0,0,2.36-7.87,13.76,13.76,0,0,0-2.28-7.8,6.85,6.85,0,0,0-5.91-3.42,6.45,6.45,0,0,0-5.52,3.11A13.52,13.52,0,0,0,148.57,28.18Z" transform="translate(-2.92 -2.4)"/><path class="cls-1" d="M217.88,20.9l.26-7.72c0-3.38-.35-5.61-1.06-6.67a4,4,0,0,0-3.55-1.6c-1,0-1.46-.19-1.46-.58s.29-.52.87-.52l8.47.27,7.19-.14c.56,0,.84.17.84.5s-.18.45-.55.45a7.91,7.91,0,0,0-3.43.61,3.09,3.09,0,0,0-1.61,2.08,57.59,57.59,0,0,0-.64,8.39c-.16,4.62-.24,8-.24,10.06l-.09,6.82c0,2.13.21,3.51.64,4.15a4.13,4.13,0,0,0,1.9,1.5,8.68,8.68,0,0,0,2.6.68c.62.07.93.25.93.53s-.26.44-.79.44l-9-.22-5.85.19c-.68,0-1-.16-1-.5s.25-.42.73-.44a7.53,7.53,0,0,0,3-.58,3.12,3.12,0,0,0,1.14-1.7,15.31,15.31,0,0,0,.5-4.21l.14-10.07c-1.66-.12-3.35-.17-5.07-.17q-11.24,0-14.24.39-.24,5.31-.24,8.75a34,34,0,0,0,.18,4.74A2.85,2.85,0,0,0,199.54,38,5.31,5.31,0,0,0,202.05,39c.66.13,1,.33,1,.61s-.22.5-.64.5a2.86,2.86,0,0,1-.58-.06q-1.58-.17-6.51-.16a51.79,51.79,0,0,0-6.59.24h-.53c-.44,0-.67-.15-.67-.43s.3-.53.9-.6a5.28,5.28,0,0,0,3.2-1.19c.64-.63,1.08-3,1.32-7.07s.36-9,.36-14.87q0-7.11-.69-9c-.47-1.24-1.6-1.93-3.4-2-.41,0-.61-.19-.61-.46S189,4,189.86,4l11.7-.17a10.76,10.76,0,0,1,1.5.07c.17.05.25.19.25.45s-.25.46-.76.51c-1.91.18-3.08.52-3.5,1s-.62,3.48-.62,9q0,.87.09,6c2,.14,4.29.22,7,.22Q210.66,21.12,217.88,20.9Z" transform="translate(-2.92 -2.4)"/><path class="cls-1" d="M248,36.38a9.3,9.3,0,0,1-3.4,2.95,9.79,9.79,0,0,1-4.48,1,6.62,6.62,0,0,1-4.6-1.5,5.07,5.07,0,0,1-1.67-3.94,6.76,6.76,0,0,1,3.3-5.69,30.41,30.41,0,0,1,4.54-1.75c3.1-1,5-1.8,5.58-2.44a3.51,3.51,0,0,0,.93-2.53A5.64,5.64,0,0,0,247,18.62a4.38,4.38,0,0,0-3.46-1.38,4.25,4.25,0,0,0-2.76.78,5.8,5.8,0,0,0-1.42,3.15c-.35,1.71-1.12,2.57-2.3,2.57a2.3,2.3,0,0,1-1.4-.62,2.13,2.13,0,0,1-.77-1.8c0-1.39.8-2.59,2.41-3.62a12.24,12.24,0,0,1,6.62-1.54,13.27,13.27,0,0,1,5.33.9,4.72,4.72,0,0,1,2.5,2.07,13.19,13.19,0,0,1,.51,4.5L252.07,31a23.22,23.22,0,0,0,.54,6c.36,1.19,1,1.79,2,1.79a5.56,5.56,0,0,0,.81-.08l.5-.06c.44,0,.66.16.66.46,0,.71-1.9,1.07-5.72,1.07a2.66,2.66,0,0,1-2.22-.74A5.68,5.68,0,0,1,248,36.38Zm0-10.82a12.94,12.94,0,0,1-3.95,2.63,16.36,16.36,0,0,0-4.39,2.86,4.63,4.63,0,0,0-1.34,3.33,4.33,4.33,0,0,0,1.09,3,3.51,3.51,0,0,0,2.72,1.22,5.51,5.51,0,0,0,3.16-1,5.94,5.94,0,0,0,2.2-2.51,11.06,11.06,0,0,0,.71-4.52c0-1.52-.07-3.18-.2-5Z" transform="translate(-2.92 -2.4)"/><path class="cls-1" d="M267.29,16.1v6.24l.06,5.82v7.72c0,1.33.23,2.18.69,2.54a3.4,3.4,0,0,0,2,.59c1.07.06,1.6.27,1.6.64s-.2.44-.61.44h-.52a41.85,41.85,0,0,0-5-.34,40.11,40.11,0,0,0-5.14.23,2.84,2.84,0,0,1-.58.05c-.46,0-.7-.17-.7-.5s.54-.56,1.62-.69a3.48,3.48,0,0,0,2.06-.68q.45-.48.45-2.76l.2-11.49q0-4.59-.72-5.45a3.86,3.86,0,0,0-2.82-.9c-.47,0-.7-.15-.7-.45a.44.44,0,0,1,.23-.38,20.11,20.11,0,0,1,3.46-.36C265,16.2,266.46,16.11,267.29,16.1ZM264.07,2.53a2.86,2.86,0,0,1,2,.78A2.24,2.24,0,0,1,267,5a2.67,2.67,0,0,1-.72,1.86,2.5,2.5,0,0,1-2,.77,3,3,0,0,1-2-.68,2.2,2.2,0,0,1-.87-1.84,2.46,2.46,0,0,1,.74-1.86A2.65,2.65,0,0,1,264.07,2.53Z" transform="translate(-2.92 -2.4)"/><path class="cls-1" d="M282.81,22.4a15.79,15.79,0,0,1,3.86-4.67A7.29,7.29,0,0,1,291,16.18a3.93,3.93,0,0,1,2.76,1.09A3.37,3.37,0,0,1,295,19.76c0,1.76-.79,2.63-2.36,2.63q-1.1,0-1.86-1.47a2.8,2.8,0,0,0-2.47-1.86,4.39,4.39,0,0,0-3,1.56,8.12,8.12,0,0,0-2.06,3.4,35.25,35.25,0,0,0-.52,7.74q0,5.4.46,6.18c.31.53,1.11.87,2.38,1,.35,0,.53.16.53.39s-.46.58-1.37.58h-9.27c-.65,0-1-.16-1-.47s.43-.47,1.3-.5c1.22-.08,2-.44,2.27-1.09s.44-3,.44-7.16c0-6.06-.14-9.7-.4-10.92s-1.23-1.87-2.92-1.95c-.69,0-1-.21-1-.52a.41.41,0,0,1,.22-.38,15.66,15.66,0,0,1,2.65-.26l5.35-.28C282.49,17.4,282.65,19.4,282.81,22.4Z" transform="translate(-2.92 -2.4)"/></svg>