<svg id="Camada_1" data-name="Camada 1" xmlns="http://www.w3.org/2000/svg" viewBox="0 0 121.2 14.74"><defs><style>.cls-1{fill:#fff;stroke:#000;stroke-miterlimit:10;stroke-width:0.25px;}</style></defs><title>beauty</title><path class="cls-1" d="M4,4.79h6c3.33,0,5.11,1.45,5.11,3.52a3.22,3.22,0,0,1-2.68,3.13c1.24.29,3.3,1.29,3.3,3.54,0,2.87-2.6,4.14-5.63,4.14H4ZM9.56,11c3,0,4.14-.92,4.14-2.58,0-1.41-1.19-2.56-3.62-2.56H5.26V11Zm-4.3,7.19h4.89c2.28,0,4.19-.95,4.19-3.06,0-1.82-1.41-3.07-4.91-3.07H5.26Z" transform="translate(-3.83 -4.66)"/><path class="cls-1" d="M36.16,12.08H27.3v6H37l-.2,1H26V4.79H36.6v1H27.3V11h8.86Z" transform="translate(-3.83 -4.66)"/><path class="cls-1" d="M48.66,14.14l-2.21,5H45.09L51.46,4.81H53L59.7,19.14H58.24l-2.21-5Zm6.87-1c-1.93-4.26-2.92-6.31-3.27-7.27h0c-.42,1.09-1.53,3.63-3.1,7.27Z" transform="translate(-3.83 -4.66)"/><path class="cls-1" d="M70.52,4.79v8.68c0,3.81,2.61,4.79,5.06,4.79,2.9,0,5.06-1,5.06-4.79V4.79H82v8.62c0,4.48-2.88,5.87-6.48,5.87-3.42,0-6.4-1.53-6.4-5.69V4.79Z" transform="translate(-3.83 -4.66)"/><path class="cls-1" d="M96.77,5.81H90.94v-1h13v1H98.09V19.14H96.72Z" transform="translate(-3.83 -4.66)"/><path class="cls-1" d="M116.87,19.14V13.75a.51.51,0,0,0-.1-.32l-6.2-8.62h1.56c1.74,2.43,4.76,6.67,5.51,7.74.74-1.07,3.79-5.27,5.66-7.74h1.48l-6.47,8.7a.55.55,0,0,0-.08.31v5.32Z" transform="translate(-3.83 -4.66)"/></svg>